<svg xmlns="http://www.w3.org/2000/svg" viewBox="0 0 64 64" width="64" height="64" role="img">
  <rect width="64" height="64" rx="14" fill="#1b3a6b"/>
  <path d="M12 20h30a4 4 0 0 1 4 4v22a4 4 0 0 1-4 4H16a4 4 0 0 1-4-4V20Z" fill="#ffffff"/>
  <path d="M46 26h4a2 2 0 0 1 2 2v18a4 4 0 0 1-4 4h-2V26Z" fill="#9fbde6"/>
  <rect x="17" y="25" width="20" height="7" rx="1.5" fill="#1b3a6b"/>
  <rect x="17" y="36" width="20" height="2.6" rx="1.3" fill="#7d95b8"/>
  <rect x="17" y="41" width="20" height="2.6" rx="1.3" fill="#7d95b8"/>
  <rect x="17" y="46" width="13" height="2.6" rx="1.3" fill="#7d95b8"/>
</svg>
